# xmcd
#
# Track frame offsets:
#	187
#	13687
#	26512
#	39112
#	51037
#	60937
#	77062
#	87187
#	98062
#	110287
#	123262
#	136987
#	149587
#
# Disc length: 2245
#
# Revision: 2
# Processed by: cddbd v1.5.1PL0 Copyright (c) Steve Scherf et al.
# Submitted via: CDex 1.51
# Normalized: r1:TDELIM( - )
#
DISCID=9a08c30d
DTITLE=Maestros del Blues - Blues (EGM)
DYEAR=1995
DGENRE=Blues
TTITLE0=John Lee Hooker - One bourbon, one scotch, one beer
TTITLE1=Muddy Waters - I'm your Hoochie Coochie man
TTITLE2=Sonny Boy Williamson - 99
TTITLE3=Koko Taylor - I'm a little (Mixed up)
TTITLE4=Buddy Guy - 100 $ (Money)
TTITLE5=Ike and Tina Turner - Shake your hand
TTITLE6=Otis Rush - I can't stop baby
TTITLE7=B. B. King - Recesion Blues
TTITLE8=Elmore James - Coming home
TTITLE9=Jimmy Hendrix and Lonnie "Young blood" - Go go shoes
TTITLE10=Big Bill Broonzy - By myself
TTITLE11=Etta James - If I can't have you
TTITLE12=Muddy Waters - I've got my Mojo working
EXTD=YEAR: 1995
EXTT0=
EXTT1=
EXTT2=
EXTT3=
EXTT4=
EXTT5=
EXTT6=
EXTT7=
EXTT8=
EXTT9=
EXTT10=
EXTT11=
EXTT12=
PLAYORDER=
